<svg xmlns="http://www.w3.org/2000/svg" width="449" height="440" viewBox="0 0 449 440" version="1.1">
	<path d="M 199.500 26.584 C 178.604 28.559, 153.954 35.680, 136.637 44.746 C 118.790 54.089, 107.891 62.999, 94.452 79.234 C 88.272 86.701, 81.073 101.389, 78.394 112 C 75.417 123.789, 75.855 141.819, 79.403 153.500 C 88.725 184.196, 114.533 209.465, 151.387 223.982 C 158.802 226.902, 175.156 232, 177.112 232 C 177.600 232, 178.007 224.912, 178.015 216.250 L 178.029 200.500 184.878 193.173 C 190.461 187.201, 191.851 186.169, 192.397 187.591 C 192.765 188.551, 193.017 199.498, 192.956 211.918 L 192.847 234.500 197.673 235.162 C 203.870 236.013, 231.341 236.190, 233.418 235.393 C 234.720 234.893, 235 232.948, 235 224.393 C 235 218.677, 235.351 214, 235.779 214 C 236.208 214, 237.207 214.900, 238 216 C 239.922 218.666, 240.896 218.534, 245.141 215.035 C 247.119 213.405, 249.022 212.355, 249.369 212.702 C 249.716 213.049, 250 217.758, 250 223.167 C 250 228.575, 250.196 233, 250.435 233 C 252.889 233, 266.908 229.354, 275.599 226.455 C 288.168 222.263, 303.671 214.633, 311.500 208.784 C 321.359 201.420, 328.450 195.217, 332.494 190.422 C 335.241 187.165, 338.181 183.733, 339.027 182.795 C 344.789 176.407, 355.671 152.687, 354.825 148.359 C 354.603 147.223, 353.559 148.971, 352.141 152.851 C 346.899 167.189, 339.014 177.843, 323.500 191.547 C 317.595 196.763, 295.359 210, 292.501 210 C 292.200 210, 292.076 202.265, 292.226 192.810 L 292.500 175.620 302.500 167.220 C 308 162.600, 318.125 154.100, 325 148.332 C 331.875 142.563, 338.886 136.612, 340.581 135.108 C 348.888 127.731, 364.034 116, 365.251 116 C 366.005 116, 367.589 116.900, 368.770 118 C 370.799 119.891, 373 120.648, 373 119.457 C 373 119.158, 374.575 111.883, 376.500 103.290 C 378.425 94.697, 379.789 87.456, 379.531 87.198 C 378.866 86.533, 335.029 97.354, 335.013 98.186 C 335.006 98.563, 336.800 99.884, 339 101.120 C 341.200 102.357, 343 103.678, 343 104.057 C 343 104.436, 341.473 106.050, 339.606 107.644 C 335.334 111.294, 315.051 130.040, 304.500 140.091 C 300.100 144.283, 294.084 149.915, 291.130 152.606 C 279.845 162.891, 282.047 160.849, 249.727 191 C 245.894 194.575, 242.168 197.500, 241.446 197.500 C 240.723 197.500, 235.355 191.425, 229.517 184 C 217.367 168.549, 218.123 169.492, 211.297 161.274 C 208.453 157.849, 205.663 154.249, 205.098 153.274 C 203.931 151.261, 205.465 149.817, 182 175.008 C 174.575 182.978, 167.958 190.074, 167.295 190.777 C 166.335 191.793, 163.688 189.243, 154.295 178.252 C 135.775 156.581, 133.779 154.369, 134.663 156.500 C 135.119 157.600, 135.627 166.064, 135.792 175.310 C 136.143 194.972, 136.598 194.617, 125.765 183.134 C 109.069 165.435, 101.755 148.432, 101.620 127 C 101.485 105.518, 109.887 86.749, 127.373 69.469 C 145.349 51.706, 169.679 39.661, 199.290 33.867 C 208.433 32.078, 214.003 31.675, 229.500 31.678 C 246.157 31.682, 250.042 32.007, 261 34.308 C 267.875 35.752, 277.515 38.296, 282.422 39.961 C 287.329 41.627, 291.500 42.833, 291.692 42.642 C 292.412 41.921, 277.081 36.099, 266.500 33.076 C 260.450 31.347, 251.450 29.238, 246.500 28.388 C 237.955 26.922, 208.068 25.775, 199.500 26.584 M 250 121 C 250 149.600, 250.205 173, 250.455 173 C 250.705 173, 251.952 171.988, 253.226 170.750 C 254.500 169.512, 259.801 164.675, 265.007 160 C 270.212 155.325, 277.178 148.963, 280.486 145.863 C 283.794 142.763, 287.738 139.111, 289.250 137.749 L 292 135.271 292 102.135 L 292 69 271 69 L 250 69 250 121 M 193.618 113.809 C 192.626 115.414, 192.775 145.425, 193.777 145.759 C 194.313 145.938, 195.831 144.828, 197.151 143.292 C 198.470 141.756, 200.269 139.930, 201.148 139.233 C 204.226 136.793, 203.699 136.249, 227.780 166.743 C 230.926 170.726, 233.844 173.989, 234.265 173.993 C 234.685 173.997, 234.910 160.387, 234.765 143.750 L 234.500 113.500 214.322 113.230 C 203.224 113.081, 193.907 113.341, 193.618 113.809 M 144 150.604 C 144 150.936, 146.637 153.973, 149.860 157.354 C 153.083 160.734, 158.254 166.200, 161.350 169.500 L 166.981 175.500 172.490 169.658 L 178 163.816 178 156.908 L 178 150 161 150 C 151.650 150, 144 150.272, 144 150.604 M 308 264.306 C 294.974 267.302, 283.076 276.888, 278.998 287.672 C 276.261 294.911, 275.954 308.234, 278.372 314.816 C 281.771 324.067, 291.644 333.378, 302.500 337.569 C 306.558 339.136, 310.045 339.499, 321 339.494 C 333.723 339.488, 334.795 339.333, 339.623 336.791 C 346.131 333.366, 352.427 326.243, 354.522 319.934 C 357.098 312.177, 355.715 310.715, 353.005 318.330 C 348.809 330.117, 341.388 336, 330.715 336 C 321.424 336, 316.297 332.170, 311.307 321.500 C 308.636 315.791, 308.500 314.797, 308.500 301 C 308.500 285.610, 310.207 277.302, 314.264 272.947 C 315.807 271.291, 315.845 271, 314.518 271 C 313.659 271, 312.411 272.238, 311.744 273.750 C 309.763 278.241, 306.276 280.096, 300 279.998 C 299.175 279.985, 297.262 279.987, 295.750 280.003 C 294.238 280.019, 293 279.575, 293 279.016 C 293 278.457, 292.100 278, 291 278 C 288.392 278, 288.470 276.838, 291.250 274.270 C 294.330 271.425, 300.915 268.838, 303.217 269.569 C 304.494 269.974, 305.895 269.327, 307.509 267.585 C 310.005 264.891, 314.225 264.193, 317 266.015 C 318.317 266.880, 318.320 267.116, 317.029 267.946 C 316.220 268.466, 315.843 269.177, 316.192 269.526 C 316.541 269.874, 318.070 269.345, 319.589 268.350 C 321.523 267.083, 324.060 266.579, 328.047 266.671 C 338.199 266.904, 344.090 272.675, 350.577 288.738 C 352.185 292.718, 353.837 295.981, 354.250 295.988 C 354.663 295.994, 355 288.800, 355 280 C 355 270, 354.625 264, 354 264 C 353.450 264, 352.986 264.788, 352.968 265.750 C 352.929 267.925, 351.043 270.420, 348.804 271.260 C 347.786 271.642, 343.809 270.262, 338.861 267.811 C 331.499 264.165, 329.697 263.690, 322.057 263.384 C 317.351 263.195, 311.025 263.610, 308 264.306 M 138.195 273.256 C 136.378 278.340, 134.286 284.075, 133.546 286 C 132.807 287.925, 130.318 294.675, 128.014 301 C 116.970 331.326, 115.594 334.428, 112.536 335.894 C 110.936 336.660, 107.695 337.505, 105.334 337.772 C 102.972 338.038, 101.283 338.648, 101.579 339.128 C 102.349 340.374, 131 340.250, 131 339 C 131 338.450, 129.942 338, 128.649 338 C 127.356 338, 124.881 337.506, 123.149 336.902 C 120.376 335.935, 120.006 335.369, 120.052 332.152 C 120.080 330.143, 121.137 325.800, 122.401 322.500 L 124.698 316.500 135.454 316.500 L 146.209 316.500 148.449 322.500 C 152.120 332.336, 152.280 333.720, 150.015 335.985 C 148.657 337.343, 146.677 338, 143.941 338 C 141.626 338, 140.135 338.409, 140.470 338.952 C 141.222 340.169, 191.666 340.349, 192.415 339.137 C 192.717 338.649, 191.187 337.966, 189.015 337.618 C 186.843 337.271, 184.193 336.050, 183.126 334.905 C 182.059 333.759, 176.116 320.150, 169.919 304.661 C 163.722 289.173, 157.399 273.688, 155.868 270.250 L 153.084 264 147.292 264.006 L 141.500 264.012 138.195 273.256 M 144.655 267.829 C 143.745 268.835, 143 270.383, 143 271.270 C 143 272.156, 142.604 273.127, 142.119 273.426 C 140.992 274.123, 140.051 278.970, 140.710 280.687 C 140.987 281.409, 142.092 282, 143.166 282 C 144.240 282, 144.840 282.450, 144.500 283 C 144.160 283.550, 144.584 284, 145.441 284 C 146.298 284, 147 284.465, 147 285.034 C 147 285.694, 145.234 285.835, 142.128 285.423 C 136.092 284.622, 135.065 285.878, 138.181 290.254 C 139.450 292.036, 140.358 294.061, 140.198 294.754 C 139.479 297.889, 150.915 299.292, 154.051 296.454 C 154.935 295.654, 156.410 295, 157.329 295 C 158.429 295, 159 294.175, 159 292.583 C 159 291.254, 159.563 289.969, 160.250 289.727 C 161.139 289.414, 160.850 288.391, 159.250 286.184 C 158.012 284.477, 157 282.463, 157 281.707 C 157 280.952, 156.662 279.996, 156.250 279.583 C 155.838 279.171, 155.470 278.533, 155.434 278.167 C 155.269 276.502, 151.447 269, 150.764 269 C 150.344 269, 150 268.325, 150 267.500 C 150 265.416, 146.653 265.622, 144.655 267.829 M 311.500 268 C 311.160 268.550, 311.584 269, 312.441 269 C 313.298 269, 314 268.550, 314 268 C 314 267.450, 313.577 267, 313.059 267 C 312.541 267, 311.840 267.450, 311.500 268 M 223.821 275.395 C 210.291 279.038, 206.170 290.941, 214.995 300.886 C 216.648 302.748, 218 304.617, 218 305.040 C 218 305.464, 216.088 306.938, 213.750 308.316 C 201.699 315.421, 199.607 325.042, 208.341 333.189 C 213.726 338.212, 217.658 339.455, 229.356 339.833 C 238.449 340.126, 241.324 339.825, 247.058 337.981 L 253.905 335.780 256.587 337.890 C 258.725 339.571, 260.665 340, 266.135 340 C 274.502 340, 274.777 339.021, 267.964 333.500 C 265.250 331.300, 263.022 329.119, 263.014 328.654 C 263.006 328.189, 263.837 326.614, 264.859 325.154 C 267.306 321.662, 270.336 312.318, 269.624 310.463 C 268.895 308.563, 258.115 308.373, 257.583 310.250 C 257.388 310.938, 256.709 313.413, 256.074 315.750 C 255.439 318.087, 254.375 319.995, 253.710 319.989 C 253.044 319.983, 250.426 318.071, 247.891 315.739 C 245.356 313.408, 241.803 310.280, 239.994 308.788 L 236.706 306.076 239.950 304.288 C 251.178 298.100, 255.703 292.131, 253.958 285.811 C 252.675 281.165, 249.464 278.363, 242.693 275.983 C 236.302 273.737, 230.634 273.560, 223.821 275.395 M 226.695 284.111 C 222.615 286.485, 222.604 292.178, 226.670 296.927 C 228.793 299.407, 230.148 299.498, 234.464 297.450 C 245.371 292.274, 244.285 282.949, 232.785 283.030 C 230.428 283.047, 227.688 283.533, 226.695 284.111 M 285.079 284.583 C 285.127 285.748, 285.364 285.985, 285.683 285.188 C 285.972 284.466, 285.936 283.603, 285.604 283.271 C 285.272 282.939, 285.036 283.529, 285.079 284.583 M 300.813 285.683 C 301.534 285.972, 302.397 285.936, 302.729 285.604 C 303.061 285.272, 302.471 285.036, 301.417 285.079 C 300.252 285.127, 300.015 285.364, 300.813 285.683 M 303.817 290.205 C 304.130 292.342, 304.503 292.815, 305.113 291.851 C 306.355 289.892, 306.190 288.287, 304.688 287.711 C 303.733 287.344, 303.496 288.021, 303.817 290.205 M 140.500 289 C 140.840 289.550, 141.541 290, 142.059 290 C 142.577 290, 143 289.550, 143 289 C 143 288.450, 142.298 288, 141.441 288 C 140.584 288, 140.160 288.450, 140.500 289 M 130.620 300.256 C 128.485 306.440, 126.525 312.063, 126.263 312.750 C 125.903 313.694, 128.033 314, 134.960 314 C 143.229 314, 144.083 313.827, 143.615 312.250 C 143.329 311.288, 142.779 309.180, 142.393 307.567 C 142.007 305.953, 141.088 303.478, 140.352 302.067 C 139.615 300.655, 139.010 299.065, 139.006 298.533 C 138.996 296.903, 135.767 289, 135.114 289.006 C 134.776 289.009, 132.754 294.072, 130.620 300.256 M 286.079 290.583 C 286.127 291.748, 286.364 291.985, 286.683 291.188 C 286.972 290.466, 286.936 289.603, 286.604 289.271 C 286.272 288.939, 286.036 289.529, 286.079 290.583 M 295.462 289.939 C 295.781 290.455, 295.245 291.341, 294.271 291.908 C 292.597 292.882, 292.596 292.941, 294.250 292.970 C 295.212 292.986, 296 292.550, 296 292 C 296 291.450, 296.675 291, 297.500 291 C 298.325 291, 299 290.550, 299 290 C 299 289.450, 298.073 289, 296.941 289 C 295.809 289, 295.143 289.422, 295.462 289.939 M 288.718 295.488 C 290.520 297.964, 293 298.840, 293 297 C 293 296.450, 292.325 296, 291.500 296 C 290.675 296, 290 295.598, 290 295.107 C 290 294.616, 289.310 293.949, 288.468 293.626 C 287.222 293.148, 287.268 293.496, 288.718 295.488 M 301 296 C 300.099 296.582, 299.975 296.975, 300.691 296.985 C 301.346 296.993, 302.160 296.550, 302.500 296 C 303.267 294.758, 302.921 294.758, 301 296 M 295.750 297.662 C 296.438 297.940, 297.563 297.940, 298.250 297.662 C 298.938 297.385, 298.375 297.158, 297 297.158 C 295.625 297.158, 295.063 297.385, 295.750 297.662 M 158.658 304.449 C 158.286 305.418, 158.582 305.714, 159.551 305.342 C 160.348 305.036, 161 304.384, 161 303.893 C 161 302.455, 159.265 302.867, 158.658 304.449 M 150.813 304.683 C 151.534 304.972, 152.397 304.936, 152.729 304.604 C 153.061 304.272, 152.471 304.036, 151.417 304.079 C 150.252 304.127, 150.015 304.364, 150.813 304.683 M 283.750 305.662 C 284.438 305.940, 285.563 305.940, 286.250 305.662 C 286.938 305.385, 286.375 305.158, 285 305.158 C 283.625 305.158, 283.063 305.385, 283.750 305.662 M 164 307 C 164 307.550, 164.702 308, 165.559 308 C 166.416 308, 166.840 307.550, 166.500 307 C 166.160 306.450, 165.459 306, 164.941 306 C 164.423 306, 164 306.450, 164 307 M 297 310 C 297 310.550, 297.450 311, 298 311 C 298.550 311, 299 310.550, 299 310 C 299 309.450, 298.550 309, 298 309 C 297.450 309, 297 309.450, 297 310 M 301.079 310.583 C 301.127 311.748, 301.364 311.985, 301.683 311.188 C 301.972 310.466, 301.936 309.603, 301.604 309.271 C 301.272 308.939, 301.036 309.529, 301.079 310.583 M 295.079 311.583 C 295.127 312.748, 295.364 312.985, 295.683 312.188 C 295.972 311.466, 295.936 310.603, 295.604 310.271 C 295.272 309.939, 295.036 310.529, 295.079 311.583 M 153.029 311.961 C 152.220 312.473, 151.861 313.194, 152.231 313.565 C 152.602 313.935, 153.633 313.510, 154.524 312.619 C 156.283 310.860, 155.391 310.467, 153.029 311.961 M 221.287 314.554 C 215.033 319.484, 216.163 327.499, 223.546 330.584 C 228.138 332.502, 236.659 332.325, 241.360 330.213 L 245.220 328.479 240.314 323.990 C 228.948 313.589, 227.023 312.001, 225.794 312.011 C 225.082 312.017, 223.054 313.162, 221.287 314.554 M 294.328 314.803 C 292.033 314.971, 289.616 315.758, 288.955 316.554 C 288.295 317.349, 286.937 318, 285.937 318 C 283.120 318, 282.901 319.389, 285.207 322.634 C 288.462 327.217, 294.679 331.297, 297.374 330.621 C 299.114 330.184, 300.176 330.746, 301.823 332.975 C 304.157 336.132, 309.115 337.985, 315.250 337.994 C 317.884 337.998, 319 337.563, 319 336.531 C 319 335.637, 318.414 335.288, 317.500 335.638 C 316.565 335.997, 316 335.631, 316 334.669 C 316 333.819, 314.671 331.669, 313.047 329.890 C 311.423 328.112, 310.337 326.265, 310.633 325.785 C 310.930 325.305, 310.645 324.277, 310 323.500 C 309.355 322.723, 309.074 321.689, 309.375 321.203 C 310.101 320.028, 304.578 316, 302.240 316 C 301.228 316, 299.972 315.662, 299.450 315.250 C 298.928 314.837, 296.623 314.636, 294.328 314.803 M 164.500 318 C 164.160 318.550, 164.835 319, 166 319 C 167.165 319, 167.840 318.550, 167.500 318 C 167.160 317.450, 166.485 317, 166 317 C 165.515 317, 164.840 317.450, 164.500 318 M 166.813 320.683 C 167.534 320.972, 168.397 320.936, 168.729 320.604 C 169.061 320.272, 168.471 320.036, 167.417 320.079 C 166.252 320.127, 166.015 320.364, 166.813 320.683 M 159.303 324.311 L 155.105 325.362 155.322 330.730 C 155.564 336.692, 156.671 337.961, 161.656 337.985 C 164.324 337.998, 164.732 337.690, 164.290 336 C 163.624 333.455, 164.379 333.481, 167.958 336.127 C 170.195 337.781, 171.623 338.106, 174.382 337.588 C 178.944 336.732, 179.331 335.970, 177.283 331.871 C 176.356 330.017, 175.538 327.713, 175.466 326.750 C 175.394 325.788, 175.147 324.832, 174.917 324.626 C 173.782 323.604, 162.993 323.387, 159.303 324.311 M 171 332 C 171 332.550, 171.450 333, 172 333 C 172.550 333, 173 332.550, 173 332 C 173 331.450, 172.550 331, 172 331 C 171.450 331, 171 331.450, 171 332 M 305 332 C 305 332.550, 305.477 333, 306.059 333 C 306.641 333, 306.840 332.550, 306.500 332 C 306.160 331.450, 305.684 331, 305.441 331 C 305.198 331, 305 331.450, 305 332 M 201.750 374.577 C 201.338 374.993, 201 378.988, 201 383.454 L 201 391.575 205.011 391.735 C 209.955 391.932, 212.570 388.871, 211.524 384.110 C 210.712 380.412, 208.803 378.758, 205.830 379.177 C 203.998 379.436, 203.438 378.934, 203.021 376.661 C 202.734 375.099, 202.162 374.161, 201.750 374.577 M 215 383.108 C 215 388.182, 215.240 392.094, 215.533 391.801 C 216.559 390.775, 216.961 375.094, 215.977 374.486 C 215.368 374.109, 215 377.354, 215 383.108 M 287 376.960 C 287 379.748, 286.763 379.979, 284.487 379.407 C 280.832 378.490, 279 380.525, 279 385.500 C 279 390.594, 280.270 391.857, 285.250 391.712 L 289 391.604 289 383.361 C 289 378.827, 288.550 374.840, 288 374.500 C 287.416 374.139, 287 375.163, 287 376.960 M 45.750 376.080 C 44.788 376.641, 44 378.209, 44 379.566 C 44 381.441, 44.899 382.448, 47.750 383.766 C 52.070 385.764, 53.020 386.785, 52.300 388.659 C 51.590 390.511, 47.485 390.342, 45.524 388.381 C 44.633 387.490, 43.589 387.079, 43.202 387.467 C 42.119 388.555, 46.935 392, 49.539 392 C 52.014 392, 55.010 389.623, 54.985 387.679 C 54.957 385.572, 53.571 384.254, 49.673 382.631 C 46.972 381.507, 45.946 380.521, 46.185 379.280 C 46.653 376.847, 49.761 376.474, 52.081 378.573 C 54.225 380.514, 55.365 380.114, 54.454 377.742 C 53.496 375.245, 48.741 374.338, 45.750 376.080 M 89.500 376 C 89.160 376.550, 89.359 377, 89.941 377 C 90.523 377, 91 376.550, 91 376 C 91 375.450, 90.802 375, 90.559 375 C 90.316 375, 89.840 375.450, 89.500 376 M 107 376 C 107 376.550, 107.477 377, 108.059 377 C 108.641 377, 108.840 376.550, 108.500 376 C 108.160 375.450, 107.684 375, 107.441 375 C 107.198 375, 107 375.450, 107 376 M 313 376 C 313 376.550, 313.477 377, 314.059 377 C 314.641 377, 314.840 376.550, 314.500 376 C 314.160 375.450, 313.684 375, 313.441 375 C 313.198 375, 313 375.450, 313 376 M 384 376 C 384 376.550, 384.477 377, 385.059 377 C 385.641 377, 385.840 376.550, 385.500 376 C 385.160 375.450, 384.684 375, 384.441 375 C 384.198 375, 384 375.450, 384 376 M 182 377.417 C 182 378.196, 181.438 379.096, 180.750 379.417 C 179.750 379.883, 179.750 380.117, 180.750 380.583 C 181.503 380.935, 182 383.134, 182 386.115 C 182 389.652, 182.440 391.232, 183.543 391.655 C 184.392 391.981, 185.404 391.905, 185.793 391.487 C 186.182 391.068, 185.938 390.525, 185.250 390.280 C 184.477 390.004, 184 387.933, 184 384.858 C 184 381.795, 184.385 380.120, 185 380.500 C 185.550 380.840, 186 380.641, 186 380.059 C 186 379.477, 185.550 379, 185 379 C 184.450 379, 184 378.325, 184 377.500 C 184 376.675, 183.550 376, 183 376 C 182.450 376, 182 376.637, 182 377.417 M 349 377.417 C 349 378.196, 348.438 379.096, 347.750 379.417 C 346.750 379.883, 346.750 380.117, 347.750 380.583 C 348.438 380.904, 349 382.892, 349 385.002 C 349 387.111, 349.273 389.548, 349.607 390.418 C 350.270 392.146, 353 392.614, 353 391 C 353 390.450, 352.550 390, 352 390 C 350.529 390, 350.761 381.278, 352.250 380.583 C 353.250 380.117, 353.250 379.883, 352.250 379.417 C 351.563 379.096, 351 378.196, 351 377.417 C 351 376.637, 350.550 376, 350 376 C 349.450 376, 349 376.637, 349 377.417 M 377 377.417 C 377 378.196, 376.438 379.096, 375.750 379.417 C 374.750 379.883, 374.750 380.117, 375.750 380.583 C 376.503 380.935, 377 383.134, 377 386.115 C 377 389.652, 377.440 391.232, 378.543 391.655 C 379.392 391.981, 380.404 391.905, 380.793 391.487 C 381.182 391.068, 380.938 390.525, 380.250 390.280 C 379.511 390.016, 379 388.062, 379 385.500 C 379 383.011, 379.532 380.918, 380.250 380.583 C 381.250 380.117, 381.250 379.883, 380.250 379.417 C 379.563 379.096, 379 378.196, 379 377.417 C 379 376.637, 378.550 376, 378 376 C 377.450 376, 377 376.637, 377 377.417 M 58.655 380.829 C 54.493 385.427, 58.136 392.788, 63.942 391.513 C 67.653 390.698, 67.159 389.056, 63.417 389.771 C 61.794 390.081, 60.451 389.743, 59.909 388.887 C 58.383 386.477, 58.894 386, 63 386 C 65.964 386, 67 385.594, 67 384.434 C 67 379.442, 61.903 377.239, 58.655 380.829 M 70 385.500 C 70 389.167, 70.436 392, 71 392 C 71.550 392, 72 389.525, 72 386.500 C 72 382.278, 72.348 381, 73.500 381 C 74.325 381, 75 380.550, 75 380 C 75 379.450, 73.875 379, 72.500 379 C 70.090 379, 70 379.233, 70 385.500 M 77.247 380.250 C 77.501 380.938, 78.485 383.863, 79.435 386.750 C 80.384 389.637, 81.462 392, 81.830 391.999 C 82.651 391.998, 87.160 379.826, 86.561 379.228 C 85.574 378.241, 84.183 380.210, 83.575 383.454 C 82.619 388.546, 81.415 388.555, 79.995 383.482 C 79.305 381.017, 78.300 379, 77.763 379 C 77.226 379, 76.994 379.563, 77.247 380.250 M 89 385.500 C 89 389.167, 89.436 392, 90 392 C 90.564 392, 91 389.167, 91 385.500 C 91 381.833, 90.564 379, 90 379 C 89.436 379, 89 381.833, 89 385.500 M 95.411 381.496 C 93.085 385.045, 94.244 390.772, 97.451 391.577 C 99.951 392.205, 104 390.590, 104 388.965 C 104 387.706, 103.377 387.748, 101.119 389.158 C 98.115 391.034, 95.824 389.501, 96.186 385.858 C 96.615 381.542, 99.230 379.993, 101.941 382.447 C 103.556 383.908, 104 383.996, 104 382.855 C 104 378.617, 97.927 377.656, 95.411 381.496 M 107 385.500 C 107 389.167, 107.436 392, 108 392 C 108.564 392, 109 389.167, 109 385.500 C 109 381.833, 108.564 379, 108 379 C 107.436 379, 107 381.833, 107 385.500 M 113.655 380.829 C 110.239 384.604, 112.671 392, 117.329 392 C 119.815 392, 123 388.350, 123 385.500 C 123 382.567, 119.792 379, 117.155 379 C 116.140 379, 114.565 379.823, 113.655 380.829 M 126.425 381.443 C 125.673 384.439, 126.534 386, 128.937 386 C 129.937 386, 131.311 386.670, 131.990 387.488 C 133.701 389.550, 130.471 390.775, 127.770 389.089 C 125.149 387.451, 123.972 388.775, 126.443 390.582 C 128.961 392.423, 132.430 392.391, 133.989 390.513 C 135.743 388.399, 134.522 386.078, 131.013 384.855 C 129.356 384.277, 128 383.173, 128 382.402 C 128 380.804, 131.564 380.485, 132.500 382 C 133.709 383.957, 135.090 383.036, 134 381 C 132.374 377.962, 127.223 378.264, 126.425 381.443 M 144.750 380.080 C 143.496 380.810, 143 382.367, 143 385.571 C 143 389.407, 143.367 390.210, 145.578 391.217 C 148.371 392.490, 151.029 391.515, 151.815 388.929 C 152.165 387.778, 151.992 387.743, 150.925 388.750 C 148.881 390.678, 146.196 390.235, 144.866 387.750 C 144.204 386.512, 143.782 385.275, 143.930 385 C 144.077 384.725, 144.619 383.712, 145.134 382.750 C 146.279 380.611, 149.850 380.445, 150.636 382.494 C 150.952 383.316, 151.603 383.745, 152.084 383.448 C 152.565 383.151, 152.410 382.028, 151.739 380.954 C 150.413 378.831, 147.517 378.469, 144.750 380.080 M 156.655 380.829 C 155.745 381.835, 155 384.015, 155 385.674 C 155 391.363, 161.388 394.139, 164.443 389.777 C 168.880 383.443, 161.727 375.225, 156.655 380.829 M 168.515 379.818 C 167.549 380.785, 167.995 392, 169 392 C 169.550 392, 170.007 390.087, 170.015 387.750 C 170.034 382.632, 171.101 380.682, 173.620 381.161 C 175.126 381.448, 175.560 382.561, 175.802 386.759 C 175.969 389.642, 176.531 392, 177.052 392 C 178.501 392, 178.204 381.414, 176.721 380.183 C 175.437 379.118, 169.480 378.853, 168.515 379.818 M 190.074 380.411 C 189.273 381.376, 189.235 382.027, 189.951 382.470 C 190.528 382.826, 191 382.641, 191 382.059 C 191 381.477, 192.125 381, 193.500 381 C 195.056 381, 196 381.567, 196 382.500 C 196 383.413, 195.069 384, 193.622 384 C 190.633 384, 188.749 386.200, 189.173 389.195 C 189.456 391.189, 190.074 391.500, 193.749 391.500 L 197.999 391.500 197.999 386.450 C 198 383.672, 197.460 380.860, 196.800 380.200 C 195.171 378.571, 191.506 378.686, 190.074 380.411 M 221.571 380.571 C 220.681 381.462, 220 383.830, 220 386.036 C 220 390.477, 222.518 392.589, 226.593 391.566 C 230.043 390.700, 229.561 389.479, 225.775 389.490 C 223.498 389.497, 222.448 388.986, 222.202 387.750 C 221.916 386.313, 222.581 386, 225.927 386 C 229.219 386, 230 385.646, 230 384.155 C 230 381.954, 226.987 379, 224.743 379 C 223.863 379, 222.436 379.707, 221.571 380.571 M 232.909 381.171 C 231.946 382.970, 232.058 383.569, 233.565 384.671 C 234.564 385.402, 236.196 386, 237.191 386 C 238.333 386, 239 386.737, 239 388 C 239 390.246, 236.135 390.735, 234.217 388.817 C 232.548 387.148, 231.446 388.628, 232.980 390.476 C 234.362 392.142, 237.728 392.459, 239.837 391.122 C 242.206 389.621, 240.768 385.762, 237.401 384.584 C 234.125 383.438, 233.852 381, 237 381 C 238.008 381, 239.034 381.563, 239.280 382.250 C 239.525 382.938, 240.077 383.173, 240.506 382.774 C 241.769 381.597, 238.953 379, 236.413 379 C 235.032 379, 233.593 379.892, 232.909 381.171 M 249.025 379.750 C 249.038 380.163, 249.919 383.100, 250.983 386.278 C 253.032 392.404, 252.797 395, 250.193 395 C 248.949 395, 248.864 395.264, 249.807 396.207 C 250.750 397.150, 251.307 397.095, 252.351 395.957 C 253.897 394.271, 258 383.109, 258 380.588 C 258 377.705, 256.116 379.863, 255.427 383.535 C 254.578 388.062, 253.621 387.912, 252 383 C 251.274 380.800, 250.302 379, 249.840 379 C 249.378 379, 249.011 379.337, 249.025 379.750 M 268.250 379.662 C 265.883 380.617, 267.006 381.795, 270.143 381.647 C 271.876 381.566, 273.484 382.061, 273.727 382.750 C 274.003 383.535, 273.232 384, 271.655 384 C 270.273 384, 268.436 384.707, 267.571 385.571 C 265.718 387.425, 265.699 387.569, 267.007 390.012 C 267.761 391.422, 269.015 391.854, 272.007 391.734 L 276 391.575 276 386.488 C 276 383.689, 275.460 380.860, 274.800 380.200 C 273.587 378.987, 270.543 378.737, 268.250 379.662 M 292 385.625 C 292 393.279, 293.769 394.192, 294.198 386.759 C 294.440 382.561, 294.874 381.448, 296.380 381.161 C 298.899 380.682, 299.966 382.632, 299.985 387.750 C 300.007 393.838, 301.837 393.011, 302.198 386.750 C 302.461 382.176, 302.790 381.459, 304.750 381.180 C 306.852 380.882, 307 381.227, 307 386.430 C 307 389.494, 307.450 392, 308 392 C 309.478 392, 309.248 381.279, 307.750 380.309 C 307.063 379.864, 303.238 379.444, 299.250 379.375 L 292 379.250 292 385.625 M 313 385.441 C 313 389.147, 313.435 392, 314 392 C 314.554 392, 315 389.353, 315 386.059 C 315 382.791, 314.550 379.840, 314 379.500 C 313.372 379.112, 313 381.323, 313 385.441 M 318 385.664 C 318 393.289, 319.770 394.172, 320.198 386.759 C 320.440 382.561, 320.874 381.448, 322.380 381.161 C 324.899 380.682, 325.966 382.632, 325.985 387.750 C 325.993 390.087, 326.450 392, 327 392 C 328.315 392, 328.291 383.413, 326.969 380.943 C 326.191 379.489, 324.966 379.055, 321.969 379.172 L 318 379.328 318 385.664 M 331 385.500 C 331 389.167, 331.436 392, 332 392 C 332.564 392, 333 389.167, 333 385.500 C 333 381.833, 332.564 379, 332 379 C 331.436 379, 331 381.833, 331 385.500 M 338.250 379.662 C 337.563 379.940, 337 381.265, 337 382.608 C 337 384.509, 337.650 385.180, 339.936 385.637 C 341.551 385.960, 343.118 386.866, 343.419 387.650 C 344.180 389.633, 341.145 390.572, 338.770 389.089 C 336.149 387.451, 334.972 388.775, 337.443 390.582 C 339.879 392.363, 342.094 392.383, 344.471 390.645 C 346.953 388.830, 345.831 386.186, 342.013 384.855 C 338.629 383.675, 337.926 381, 341 381 C 342.100 381, 343 381.450, 343 382 C 343 382.550, 343.450 383, 344 383 C 345.614 383, 345.146 380.270, 343.418 379.607 C 341.618 378.916, 340.058 378.933, 338.250 379.662 M 356 385.652 C 356 389.217, 356.438 392, 357 392 C 357.550 392, 358 389.708, 358 386.906 C 358 382.654, 358.330 381.726, 360 381.290 C 363.046 380.493, 362.385 379.123, 359 379.219 L 356 379.304 356 385.652 M 364.667 379.667 C 364.300 380.033, 364 381.023, 364 381.867 C 364 383.059, 364.267 383.133, 365.200 382.200 C 366.864 380.536, 369.670 380.699, 370.362 382.500 C 370.757 383.530, 370.300 384, 368.903 384 C 365.803 384, 363 385.858, 363 387.913 C 363 390.591, 365.004 391.836, 369.124 391.716 L 372.747 391.611 372.855 386.858 C 372.924 383.776, 372.416 381.559, 371.409 380.552 C 369.831 378.974, 365.879 378.455, 364.667 379.667 M 384 385.500 C 384 389.167, 384.436 392, 385 392 C 385.564 392, 386 389.167, 386 385.500 C 386 381.833, 385.564 379, 385 379 C 384.436 379, 384 381.833, 384 385.500 M 388.437 380.695 C 388.794 381.628, 389.794 384.553, 390.659 387.195 C 391.523 389.838, 392.628 392, 393.115 392 C 393.602 392, 394 391.881, 394 391.736 C 394 391.591, 394.900 389.009, 396 386 C 398.256 379.828, 398.384 379, 397.078 379 C 396.570 379, 395.611 380.688, 394.946 382.750 C 393.064 388.588, 392.758 388.666, 391.303 383.675 C 390.553 381.104, 389.455 379, 388.863 379 C 388.261 379, 388.073 379.748, 388.437 380.695 M 401.750 380.080 C 400.496 380.810, 400 382.367, 400 385.571 C 400 389.371, 400.376 390.214, 402.500 391.182 C 406.125 392.834, 409.628 390.989, 410.194 387.131 C 411.097 380.976, 406.625 377.241, 401.750 380.080 M 413.966 381.064 C 412.629 383.561, 414.040 385.722, 417.312 386.190 C 420.585 386.658, 420.813 390, 417.573 390 C 416.158 390, 415 389.550, 415 389 C 415 388.450, 414.550 388, 414 388 C 412.248 388, 412.925 389.889, 415.093 391.050 C 418.382 392.810, 422 391.437, 422 388.429 C 422 386.514, 421.268 385.641, 419 384.850 C 415.626 383.674, 414.932 381, 418 381 C 419.100 381, 420 381.450, 420 382 C 420 382.550, 420.450 383, 421 383 C 422.614 383, 422.146 380.270, 420.418 379.607 C 417.441 378.465, 415.070 379, 413.966 381.064 M 59.659 382.447 C 59.200 383.642, 59.767 384, 62.115 384 C 64.109 384, 65.024 383.567, 64.755 382.750 C 64.139 380.880, 60.346 380.655, 59.659 382.447 M 114.429 383.428 C 113.492 387.159, 114.816 390.170, 117.234 389.808 C 120.344 389.343, 121.625 386.667, 120.217 383.578 C 118.687 380.219, 115.256 380.130, 114.429 383.428 M 158.229 382.171 C 156.168 384.232, 156.712 388.774, 159.112 389.535 C 162.350 390.563, 164.652 387.757, 163.428 384.275 C 162.350 381.209, 160.101 380.299, 158.229 382.171 M 203.429 383.428 C 202.554 386.911, 203.805 390, 206.089 390 C 208.791 390, 210.561 385.916, 209.068 383.126 C 207.499 380.196, 204.196 380.373, 203.429 383.428 M 222.667 381.667 C 221.237 383.096, 222.129 384, 224.969 384 C 227.197 384, 227.794 383.626, 227.362 382.500 C 226.775 380.972, 223.876 380.458, 222.667 381.667 M 281.421 382.345 C 281.107 383.163, 280.997 385.107, 281.175 386.666 C 281.435 388.936, 281.998 389.500, 284 389.500 C 286.250 389.500, 286.500 389.100, 286.500 385.500 C 286.500 382.111, 286.156 381.451, 284.246 381.180 C 282.938 380.994, 281.752 381.483, 281.421 382.345 M 402.421 382.345 C 402.107 383.163, 401.997 385.107, 402.175 386.666 C 402.435 388.936, 402.998 389.500, 405 389.500 C 407.250 389.500, 407.500 389.100, 407.500 385.500 C 407.500 382.111, 407.156 381.451, 405.246 381.180 C 403.938 380.994, 402.752 381.483, 402.421 382.345 M 269.460 386.419 C 267.985 387.508, 267.783 388.153, 268.644 389.026 C 270.324 390.732, 273.500 389.779, 273.500 387.570 C 273.500 385.077, 271.897 384.620, 269.460 386.419 M 365.951 386.559 C 364.514 388.291, 365.562 390, 368.059 390 C 369.127 390, 370 389.812, 370 389.582 C 370 389.352, 370.250 388.511, 370.557 387.713 C 371.305 385.764, 367.419 384.790, 365.951 386.559 M 191 388.070 C 191 389.641, 191.539 390.062, 193.240 389.820 C 196.564 389.345, 196.856 386, 193.573 386 C 191.638 386, 191 386.513, 191 388.070" stroke="none" fill="black" fill-rule="evenodd"/>
</svg>